<?xml version="1.0" encoding="utf-8"?><svg viewBox="0 0 272 46" xmlns="http://www.w3.org/2000/svg" xmlns:xlink="http://www.w3.org/1999/xlink"><style>:root>svg{display:none}:root>svg:target{display:block}</style><svg fill="none" viewBox="0 0 31 39" id="Vector-1" xmlns="http://www.w3.org/2000/svg"><path d="M19.25.75h-15A3.75 3.75 0 00.5 4.5v30a3.75 3.75 0 003.75 3.75h22.5a3.75 3.75 0 003.75-3.75V12L19.25.75zm-8.441 26.606c-.58.544-1.435.788-2.43.788a4.191 4.191 0 01-.578-.034v2.674H6.125v-7.38c.756-.113 1.52-.165 2.286-.154 1.044 0 1.787.199 2.287.598.476.379.799 1 .799 1.73-.002.736-.246 1.356-.688 1.778zm7.138 2.54c-.788.655-1.986.966-3.45.966-.878 0-1.498-.056-1.92-.112v-7.344c.757-.11 1.52-.163 2.286-.156 1.419 0 2.341.255 3.061.799.779.577 1.266 1.498 1.266 2.82 0 1.43-.523 2.419-1.243 3.028zm6.928-5.202h-2.872v1.708h2.684v1.376h-2.684v3.008h-1.7v-7.48h4.572v1.388zM19.25 13.875h-1.875V4.5l9.375 9.375h-7.5z" fill="#fff"/></svg><svg viewBox="0 0 23 16" id="arrow-right" xmlns="http://www.w3.org/2000/svg"><path fill-rule="evenodd" clip-rule="evenodd" d="M.563 8a.83.83 0 01.228-.575.766.766 0 01.553-.237H19.77l-4.917-5.113a.83.83 0 01-.229-.575.83.83 0 01.23-.575.767.767 0 01.552-.239c.208 0 .407.086.553.239l6.25 6.5a.815.815 0 01.23.575.84.84 0 01-.23.575l-6.25 6.5a.768.768 0 01-.553.239.768.768 0 01-.553-.239.83.83 0 01-.229-.575.83.83 0 01.23-.575l4.916-5.112H1.344a.766.766 0 01-.553-.238A.83.83 0 01.562 8z"/></svg><svg fill="none" viewBox="0 0 38 46" id="calculator" xmlns="http://www.w3.org/2000/svg"><path d="M30.407 29.11c0 .992-.805 1.796-1.797 1.796h-1.977c-2.384-.095-2.382-3.5 0-3.593h1.977c.992 0 1.797.804 1.797 1.796zm3.594.718V15.094H4v23.718a3.598 3.598 0 003.594 3.594h22.813A3.598 3.598 0 0034 38.813a1.797 1.797 0 013.593 0c0 3.963-3.224 7.187-7.187 7.187H7.594C3.63 46 .406 42.776.406 38.812V7.189C.406 3.224 3.631 0 7.594 0h22.813c3.963 0 7.187 3.224 7.187 7.188v22.64c-.095 2.384-3.5 2.382-3.593 0zM34 11.5V7.187a3.598 3.598 0 00-3.594-3.593H7.594A3.598 3.598 0 004 7.188V11.5h30zm-5.391 8.984h-1.977c-2.384.095-2.382 3.5 0 3.594h1.977c2.384-.095 2.382-3.5 0-3.594zm0 13.657h-1.977c-2.384.095-2.382 3.5 0 3.593h1.977c2.384-.095 2.382-3.5 0-3.593zm-8.625-6.828h-1.977c-2.384.094-2.382 3.5 0 3.593h1.977c2.384-.095 2.382-3.5 0-3.593zm0-6.829h-1.977c-2.384.095-2.382 3.5 0 3.594h1.977c2.384-.095 2.382-3.5 0-3.594zM9.391 24.078h1.976c2.384-.095 2.382-3.5 0-3.594H9.391c-2.384.095-2.383 3.5 0 3.594zm.082 13.656h10.332c2.384-.095 2.383-3.5 0-3.593H9.473c-2.384.095-2.382 3.5 0 3.593zm-.082-6.828h1.976c2.384-.095 2.382-3.5 0-3.593H9.391c-2.384.094-2.383 3.5 0 3.593z" fill="#fff"/></svg><svg fill="none" viewBox="0 0 24 24" id="close" xmlns="http://www.w3.org/2000/svg"><path d="M14.585 12l7.883-7.865a1.84 1.84 0 00-2.603-2.603L12 9.415 4.135 1.532a1.84 1.84 0 00-2.603 2.603L9.415 12l-7.883 7.865a1.834 1.834 0 000 2.603 1.834 1.834 0 002.603 0L12 14.585l7.865 7.883a1.834 1.834 0 002.603 0 1.833 1.833 0 000-2.603L14.585 12z" fill="#E5E5E5"/></svg><svg viewBox="0 0 272 34" id="logo" xmlns="http://www.w3.org/2000/svg"><path d="M24.063 3.772c-1.144.398-2.447 1.726-2.952 3.001-.345.93-.399 2.338-.319 9.457.08 8.792.107 8.872 1.383 10.28 1.382 1.54 1.196 1.513 13.586 1.566 13.401.08 13.48.08 14.97-2.151.452-.69.85-1.567.85-1.913v-.637l-11.884-.053-11.912-.08V8.633h23.797v-5.18l-13.348.027c-8.561 0-13.666.106-14.171.292zM122.573 13.919c0 11.369.027 11.554 1.516 12.962.399.399 1.09.85 1.489.983 1.037.398 23.796.398 24.833 0 .904-.345 2.127-1.46 2.633-2.417.292-.584.372-2.71.372-11.369V3.453h-6.913v9.908c0 5.472-.053 9.987-.106 10.04-.054.054-3.882.08-8.509.027l-8.402-.08V3.454h-6.913v10.465zM10.636 15.805V27.89h6.913V3.719h-6.913v12.086zM55.038 15.938v12.218l15.368-.053 15.342-.08v-5.046l-11.885-.08-11.912-.053V8.766h23.93V3.719H55.039v12.219zM91.252 4.277a4.222 4.222 0 00-1.782 1.7l-.664 1.115v8.74c0 8.552.026 8.765.611 9.774 1.223 2.152 1.144 2.152 9.466 2.231l7.365.08 1.967 1.966 1.968 1.992h6.913l-1.782-1.806c-.983-.983-1.781-1.886-1.781-1.992 0-.107.532-.186 1.196-.186 1.995 0 3.856-1.382 4.388-3.214.345-1.222.345-16.283 0-17.558-.16-.558-.585-1.355-.984-1.806-1.356-1.62-1.064-1.594-13.959-1.594-11.46 0-11.806.026-12.922.558zm21.217 11.793v7.305h-4.014l-1.41-1.328-1.409-1.328h-6.567l1.117 1.142c.611.61 1.116 1.222 1.116 1.328 0 .106-1.276.16-2.845.133l-2.871-.08-.08-6.88c-.053-3.798-.027-7.039.053-7.251.106-.266 1.755-.345 8.535-.345h8.375v7.304zM156.872 15.938v12.218H187.449v-5.312l-11.885-.053-11.912-.08V8.898l11.912-.08 11.885-.052V3.719H156.872v12.219zM190.374 15.938v12.218h30.843v-5.312h-23.93V8.766h23.93V3.719h-30.843v12.219zM224.141 16.07v12.086h6.115v-9.058c0-5.339.106-9.004.239-8.951.133.026 3.111 4.09 6.594 8.978l6.328 8.898 5.531.08 5.503.053V3.984h-6.115v9.058c0 5.499-.106 9.005-.239 8.952-.133-.053-3.138-4.117-6.674-9.058l-6.408-8.952h-10.874V16.07z"/><path d="M64.078 16.07v2.524H84.02V13.547H64.08v2.523zM165.912 16.07v2.524h19.676V13.547h-19.676v2.523zM199.6 13.733c-.08.133-.133 1.248-.133 2.523l-.027 2.338h19.915V13.547h-9.811c-5.424 0-9.891.08-9.944.186z"/></svg><svg fill="none" viewBox="0 0 31 39" id="pdf" xmlns="http://www.w3.org/2000/svg"><path d="M19.25.75h-15A3.75 3.75 0 00.5 4.5v30a3.75 3.75 0 003.75 3.75h22.5a3.75 3.75 0 003.75-3.75V12L19.25.75zm-8.441 26.606c-.58.544-1.435.788-2.43.788a4.191 4.191 0 01-.578-.034v2.674H6.125v-7.38c.756-.113 1.52-.165 2.286-.154 1.044 0 1.787.199 2.287.598.476.379.799 1 .799 1.73-.002.736-.246 1.356-.688 1.778zm7.138 2.54c-.788.655-1.986.966-3.45.966-.878 0-1.498-.056-1.92-.112v-7.344c.757-.11 1.52-.163 2.286-.156 1.419 0 2.341.255 3.061.799.779.577 1.266 1.498 1.266 2.82 0 1.43-.523 2.419-1.243 3.028zm6.928-5.202h-2.872v1.708h2.684v1.376h-2.684v3.008h-1.7v-7.48h4.572v1.388zM19.25 13.875h-1.875V4.5l9.375 9.375h-7.5z" fill="url(#fpaint0_linear)"/><defs><linearGradient id="fpaint0_linear" x1=".5" y1=".75" x2="37.085" y2="30.018" gradientUnits="userSpaceOnUse"><stop stop-color="#035FA1"/><stop offset=".568" stop-color="#0086B5"/><stop offset=".901" stop-color="#1779BF"/></linearGradient></defs></svg><svg viewBox="0 0 34 34" id="phone" xmlns="http://www.w3.org/2000/svg"><path d="M32.56 26.423l-7.453-6.776a1.835 1.835 0 00-2.55.08l-4.387 4.511c-1.056-.202-3.179-.863-5.364-3.043-2.185-2.188-2.847-4.316-3.043-5.365l4.508-4.389a1.833 1.833 0 00.079-2.55l-6.775-7.45a1.833 1.833 0 00-2.55-.16L1.047 4.693a1.833 1.833 0 00-.532 1.19C.488 6.34-.037 17.198 8.382 25.62c7.344 7.343 16.544 7.88 19.078 7.88.37 0 .597-.011.658-.015a1.819 1.819 0 001.188-.533l3.41-3.98a1.828 1.828 0 00-.156-2.549z"/></svg><svg fill="none" viewBox="0 0 13 7" id="spoiler-arrow" xmlns="http://www.w3.org/2000/svg"><path d="M6.5 7L0 .5h13L6.5 7z" fill="#0086B5"/></svg></svg>