<svg version="1.0" xmlns="http://www.w3.org/2000/svg" width="933.333" height="933.333" viewBox="0 0 700 700"><path d="M341.5 100.9c-5.5 2.5-6.8 4.2-12.1 16.1-2.5 5.8-5.3 12.1-6.1 14-.9 1.9-2.4 5.3-3.4 7.5s-8.8 20-17.4 39.5c-8.6 19.5-16.5 37.5-17.7 40-1.1 2.5-2.9 6.5-4 9s-2.6 5.8-3.3 7.5c-.8 1.6-5 11.1-9.3 21-4.4 9.9-9.1 20.5-10.5 23.5-1.3 3-6.6 14.9-11.7 26.5-5 11.5-9.8 22.3-10.6 24-.7 1.6-6.5 14.7-12.8 29-6.3 14.3-11.7 26-12 26-.3 0-24-18.5-52.7-41C26.3 240 25.1 239.1 21.4 238.4c-12-2.2-21.4 5-21.4 16.5 0 4.5 1.3 8.9 6.6 22.6 3.6 9.3 7.8 20.4 9.4 24.5 5.2 13.8 21 54.5 21.9 56.5.6 1.1 5.7 14.4 11.5 29.5s14.4 37.6 19.1 50c4.8 12.4 9 23.4 9.5 24.5.5 1.1 1.9 4.5 3 7.5s2.5 6.4 3 7.5c.7 1.6 12.1 31.1 19 49.5 6.7 17.8 24.5 63 25.6 65.2 1.6 3 6.7 7.2 10.2 8.3 1.2.3 96.2.6 211.1.7 208.7 0 208.9 0 212.9-2.1 2.2-1.1 4.9-3.3 6-4.8 1-1.6 4.9-10.7 8.7-20.3 3.7-9.6 8.2-21.3 10-26 1.8-4.7 7.6-19.8 12.9-33.5 5.3-13.8 10.1-25.8 10.6-26.7.6-1 1-2.3 1-2.9 0-.6.6-2.5 1.4-4.2.8-1.8 7.2-18.1 14.1-36.2 7-18.2 13.1-33.9 13.6-35 .4-1.1 8.5-22 17.9-46.5 9.4-24.5 17.5-45.4 18-46.5 1-2.1 5.5-13.8 16.4-42.3 7.1-18.5 7.6-21.5 4.2-28-3.2-6.2-13.8-10.1-20.7-7.8-1.9.7-11.7 7.5-21.8 15.2-10 7.6-25.3 19.3-33.9 25.8-8.7 6.6-22.2 16.9-30.2 23-8 6-18.1 13.7-22.5 17.1-16 12.2-29.3 22.3-41.5 31.6-6.9 5.2-12.7 9.6-13 9.9-.5.6-23 17.7-25.5 19.5-1.7 1.2-1.2 2-6.7-10.5s-48.3-109.2-50.3-113.5c-.7-1.7-10.4-23.5-21.5-48.5s-20.8-46.9-21.5-48.5c-.8-1.7-6.3-14.2-12.4-27.9-6.1-13.7-11.8-25.7-12.8-26.8-5-5.6-14.5-7.3-21.8-3.9zm10.8 63.8c1.4 3.5 13.8 31.8 19.4 44.3 4.2 9.2 4.6 10.1 24.8 56 10.9 24.5 21 47.3 22.6 50.8 1.6 3.5 2.9 6.5 2.9 6.7 0 .3 1.1 2.8 2.4 5.7 2 4.3 14.2 31.9 20.1 45.3.7 1.6 3.2 7 5.4 11.8 2.3 4.9 4.1 9.2 4.1 9.6 0 .4.9 2.7 2.1 5.1 1.7 3.5 1.8 4.5.7 5.1-.7.4-14.3 10.8-30.3 23-15.9 12.1-33.3 25.3-38.5 29.2-5.2 4-9.7 7.4-10 7.7-.3.3-7.8 6.1-16.7 12.8L345.2 490l-12.9-10.1c-7-5.5-13.5-10.5-14.3-11.2-.8-.7-4.4-3.5-8-6.2-3.5-2.8-7.3-5.8-8.5-6.7-1.1-.9-11-8.7-22-17.4-11-8.6-24.3-19.2-29.6-23.3l-9.6-7.6 24.8-56c13.6-30.8 25.9-58.5 27.2-61.5 1.4-3 10.5-23.5 20.2-45.5s20.8-47 24.7-55.5c3.8-8.5 7.1-16 7.3-16.5.8-2.9 5-11.5 5.6-11.5.4 0 1.4 1.7 2.2 3.7zm288.6 148.5c-4.9 12.6-9.8 25-19.6 50.3-5.7 14.8-13.4 34.6-17 44-3.6 9.3-7.3 19-8.3 21.5-5.9 15.6-13.4 34.9-14.5 37.5-.7 1.6-3.2 7.9-5.5 14-2.3 6-5.5 14.4-7.1 18.5-1.6 4.1-5.3 13.8-8.3 21.4l-5.4 14-1.5-3c-.8-1.6-8.8-19.3-17.7-39.4-18.8-42.4-19.8-44.5-21.6-48.5-9.3-20.7-12.3-28-11.7-28.6.5-.4 3.1-2.4 5.9-4.5 2.8-2.2 6.8-5.2 9-6.9 14.2-10.9 85.9-65.5 90.4-68.9 3-2.2 6-4.6 6.6-5.1.6-.6 2.3-1.9 3.8-3 2.5-1.8 8.8-6.6 20.6-15.7 1.9-1.5 3.6-2.7 3.7-2.8.2 0-.7 2.4-1.8 5.2zM71 319.8c3 2.4 6.2 4.9 7 5.5.8.7 25.8 20.3 55.5 43.5 29.7 23.3 55 43.2 56.2 44.2 1.2 1 3.3 2.6 4.6 3.5l2.5 1.6-4.3 9.8c-2.4 5.4-5.1 11.5-6.1 13.7-.9 2.1-1.8 4.1-1.9 4.4-.1.3-.8 2.1-1.7 4-.9 1.9-3.1 7.1-5.1 11.5-5.6 13-22.7 51.5-25.4 57.5-1.4 3-3.2 7.3-4.1 9.5-.8 2.2-1.8 4.4-2.2 4.8-.7.8-5.8-11.6-21-50.8-2.1-5.5-5.9-15.4-8.5-22-2.6-6.6-5.8-14.7-7-18-1.2-3.3-6.5-17-11.8-30.5-5.2-13.5-14.3-36.9-20.1-52-5.9-15.1-11-28.4-11.5-29.5-.5-1.1-1.7-4-2.6-6.5-.9-2.5-2.6-6.7-3.6-9.3l-1.9-4.8 3.7 2.8c2.1 1.5 6.3 4.7 9.3 7.1zM479 451c2.8 6.3 12.6 28.4 21.7 49 19.5 44.1 19 43 24.2 54.4 2.3 4.9 4.1 9.3 4.1 9.7 0 .5-19.9.9-44.2.9h-44.3L408 539.5c-17.9-14-32.6-25.8-32.8-26.3-.1-.5 3.9-4.1 9-7.9 5.1-3.9 19.5-14.9 32-24.4 12.5-9.6 23.9-18.3 25.4-19.4 1.5-1.1 3.9-2.9 5.3-4.1 10.5-8.6 25.6-19.3 26.2-18.7.4.4 3.1 6 5.9 12.3zm-225.5 12.1c14.3 11.3 34 26.7 43.8 34.4 9.7 7.6 17.7 14.2 17.7 14.6 0 .3-8.9 7.3-19.7 15.5-10.9 8.2-20 15.1-20.3 15.4-.3.3-5 3.9-10.5 8s-10.2 7.7-10.5 8c-.3.3-2.1 1.7-4.1 3.2l-3.6 2.7-37.7.1c-20.7 0-37.6-.3-37.6-.6 0-.6 22.6-52 29.1-66.2 1.6-3.5 2.9-6.5 2.9-6.7 0-.2 1.5-3.6 3.3-7.7 1.9-4 6.9-15.3 11.2-25 5.2-11.9 8.2-17.5 8.9-17 .6.5 12.8 10.1 27.1 21.3zM360 546.6c6.9 5.5 14.9 11.8 17.9 14.2l5.4 4.2h-77.4l8.8-6.7c4.8-3.7 9.3-7.1 9.8-7.6 8.4-7 21-15.6 21.9-14.8.6.4 6.7 5.3 13.6 10.7z"/></svg>